<svg width="62" height="18" viewBox="0 0 62 18" fill="none" xmlns="http://www.w3.org/2000/svg">
<path d="M16.6727 5.99106L10 12.6637V16H13.3364L20.0091 9.32736M16.6727 5.99106L19.0654 3.59837L19.0669 3.59695C19.3962 3.26759 19.5612 3.10261 19.7514 3.04082C19.9189 2.98639 20.0993 2.98639 20.2669 3.04082C20.4569 3.10257 20.6217 3.26735 20.9506 3.59625L22.4018 5.04738C22.7321 5.37769 22.8973 5.54292 22.9592 5.73337C23.0136 5.90088 23.0136 6.08133 22.9592 6.24885C22.8974 6.43916 22.7324 6.60414 22.4025 6.93398L22.4018 6.93468L20.0091 9.32736M16.6727 5.99106L20.0091 9.32736" stroke="#CDCDCD" stroke-linecap="round" stroke-linejoin="round"/>
<path d="M39.8741 7.61505C39.8071 6.74386 40.4959 6 41.3697 6H48.63C49.5039 6 50.1927 6.74385 50.1257 7.61505L49.6064 14.365C49.5463 15.1465 48.8946 15.75 48.1108 15.75H41.8889C41.1051 15.75 40.4535 15.1465 40.3934 14.365L39.8741 7.61505Z" stroke="#CDCDCD"/>
<path d="M50.625 3.75H39.375" stroke="#CDCDCD" stroke-linecap="round"/>
<path d="M43.5 2.25C43.5 1.83579 43.8358 1.5 44.25 1.5H45.75C46.1642 1.5 46.5 1.83579 46.5 2.25V3.75H43.5V2.25Z" stroke="#CDCDCD"/>
<path d="M46.5 9V12.75" stroke="#CDCDCD" stroke-linecap="round"/>
<path d="M43.5 9V12.75" stroke="#CDCDCD" stroke-linecap="round"/>
</svg>
